<svg width="14" height="12" viewBox="0 0 14 12" fill="none" xmlns="http://www.w3.org/2000/svg">
<path d="M11.6414 0.251324C9.56957 1.55093 7.05864 3.81284 4.89123 6.31946L4.50166 6.7692L2.96465 5.76721C2.12177 5.21827 1.38868 4.75861 1.33909 4.752C1.17973 4.72223 1.04515 4.81483 0.531629 5.29763C-0.0739693 5.86972 -0.0881353 5.89949 0.124355 6.18719C0.198727 6.2897 0.67329 6.9147 1.18327 7.57608C2.24572 8.95836 3.30463 10.3935 3.76503 11.0748C4.36709 11.9643 4.35646 11.9511 4.48396 11.9842C4.70353 12.0404 4.79915 11.9643 5.1108 11.4716C5.85452 10.2877 7.08343 8.48547 8.00776 7.22555C10.0193 4.48414 11.783 2.4504 13.4157 0.988759C13.9858 0.476192 14 0.462964 14 0.330688C14 0.214948 13.9788 0.175265 13.8831 0.0958996L13.7698 0H12.9057H12.0415L11.6414 0.251324Z" fill="#17161A"/>
</svg>
