<svg width="162" height="25" viewBox="0 0 162 25" fill="none" xmlns="http://www.w3.org/2000/svg">
<path d="M39.8564 22.9995C38.2933 22.9995 36.9129 22.6769 35.7151 22.0316C34.5377 21.3864 33.6242 20.4772 32.9745 19.304C32.3249 18.1112 32.0001 16.7425 32.0001 15.1978V9.80119C32.0001 8.25649 32.3249 6.89756 32.9745 5.72437C33.6445 4.53163 34.5783 3.61264 35.776 2.96739C36.9941 2.32214 38.3948 1.99951 39.9782 1.99951H43.206C44.7286 1.99951 46.0684 2.31236 47.2255 2.93806C48.3827 3.56376 49.2759 4.44364 49.9052 5.57772C50.5548 6.69225 50.8796 7.99253 50.8796 9.47856H46.7383C46.7383 8.30538 46.4135 7.36683 45.7639 6.66292C45.1143 5.93946 44.2616 5.57772 43.206 5.57772H39.9782C38.8414 5.57772 37.9279 5.98834 37.2377 6.80957C36.5474 7.61124 36.2023 8.66711 36.2023 9.97716V15.0219C36.2023 16.3319 36.5373 17.3976 37.2072 18.2188C37.8771 19.0205 38.7602 19.4213 39.8564 19.4213H43.1451C44.221 19.4213 45.094 19.0205 45.7639 18.2188C46.4541 17.4171 46.7992 16.3612 46.7992 15.0512H50.9405C50.9405 16.635 50.6157 18.033 49.9661 19.2453C49.3165 20.4381 48.403 21.3668 47.2255 22.0316C46.0481 22.6769 44.688 22.9995 43.1451 22.9995H39.8564Z" fill="#17161A"/>
<path d="M53.5233 7.93975H57.5534V9.87125C57.9586 9.28778 58.5343 8.81496 59.2806 8.45281C60.0482 8.07053 60.8479 7.87939 61.6795 7.87939H63.8544V11.4406H61.6795C60.5493 11.4406 59.6324 11.7625 58.9288 12.4063C58.2251 13.0502 57.8733 13.8751 57.8733 14.8811V22.9994H53.5233V7.93975Z" fill="#17161A"/>
<path d="M72.9912 22.9994C71.7049 22.9994 70.5615 22.7743 69.5611 22.3241C68.5811 21.8544 67.8154 21.2085 67.2642 20.3864C66.7129 19.5448 66.4373 18.5857 66.4373 17.5092V13.7219C66.4373 12.5671 66.7129 11.5493 67.2642 10.6685C67.8154 9.78774 68.5811 9.1027 69.5611 8.61337C70.5615 8.12405 71.7049 7.87939 72.9912 7.87939H75.4413C77.4013 7.87939 78.9734 8.40786 80.1576 9.46479C81.3418 10.5217 81.9339 11.931 81.9339 13.6925V16.8046H70.6024V17.5092C70.6024 18.1551 70.8168 18.6738 71.2455 19.0653C71.6743 19.4567 72.2562 19.6524 72.9912 19.6524H75.38C76.0946 19.6524 76.6663 19.5056 77.0951 19.2121C77.5442 18.8989 77.7688 18.4976 77.7688 18.0083H81.8727C81.8727 18.987 81.5971 19.858 81.0458 20.6213C80.4945 21.3846 79.7187 21.9718 78.7182 22.3829C77.7382 22.7939 76.605 22.9994 75.3188 22.9994H72.9912ZM77.8301 13.9274V13.6925C77.8301 12.9292 77.6157 12.3224 77.1869 11.8722C76.7582 11.4025 76.1865 11.1676 75.4719 11.1676H72.9912C72.2562 11.1676 71.6641 11.4123 71.2149 11.9016C70.7657 12.3909 70.5411 13.0368 70.5411 13.8393V13.9274H77.8301Z" fill="#17161A"/>
<path d="M89.7138 22.9994C88.1606 22.9994 86.9061 22.6177 85.9503 21.8544C84.9945 21.091 84.5166 20.083 84.5166 18.8304V17.7441C84.5166 16.511 85.0144 15.5226 86.01 14.7788C87.0057 14.0155 88.3199 13.6338 89.9527 13.6338H91.7747C92.2925 13.6338 92.85 13.7023 93.4474 13.8393C94.0448 13.9763 94.5924 14.1623 95.0902 14.3971V12.8705C95.0902 12.3811 94.9209 11.9897 94.5824 11.6961C94.2638 11.3829 93.8357 11.2263 93.2981 11.2263H90.7293C90.1718 11.2263 89.7237 11.3536 89.3852 11.608C89.0467 11.8625 88.8775 12.205 88.8775 12.6356H84.9348C84.9348 11.2068 85.4625 10.0618 86.5178 9.20056C87.5931 8.31978 88.9969 7.87939 90.7293 7.87939H93.2981C95.0504 7.87939 96.4642 8.33936 97.5394 9.25928C98.6147 10.1596 99.1524 11.3634 99.1524 12.8705V22.7645H95.3889V21.003C94.911 21.6097 94.3236 22.099 93.6266 22.4709C92.9297 22.8232 92.2427 22.9994 91.5657 22.9994H89.7138ZM91.8644 19.946C92.6011 19.946 93.2582 19.7601 93.8357 19.3882C94.4132 19.0163 94.8313 18.5172 95.0902 17.8909V17.3918C94.7716 17.1569 94.3236 16.971 93.7461 16.834C93.1885 16.6969 92.5912 16.6284 91.954 16.6284H90.0722C89.5943 16.6284 89.206 16.7459 88.9073 16.9808C88.6086 17.2156 88.4593 17.5288 88.4593 17.9202V18.6836C88.4593 19.0555 88.6186 19.3589 88.9372 19.5937C89.2757 19.8286 89.7138 19.946 90.2514 19.946H91.8644Z" fill="#17161A"/>
<path d="M107.776 22.9994C105.953 22.9994 104.49 22.5296 103.388 21.5902C102.286 20.6507 101.735 19.4176 101.735 17.8909H105.762C105.762 18.4194 105.943 18.85 106.303 19.1827C106.684 19.4959 107.175 19.6524 107.776 19.6524H110.481C111.683 19.6524 112.284 19.3295 112.284 18.6836V18.1845C112.284 17.9888 112.184 17.8126 111.983 17.656C111.783 17.4799 111.512 17.3624 111.172 17.3037L105.973 16.4229C104.751 16.2272 103.779 15.8064 103.058 15.1605C102.356 14.495 102.006 13.7219 102.006 12.8411V11.8722C102.006 10.6196 102.527 9.64095 103.568 8.93633C104.63 8.23171 106.103 7.87939 107.986 7.87939H110.33C112.013 7.87939 113.366 8.31978 114.387 9.20056C115.429 10.0618 115.95 11.2068 115.95 12.6356H111.923C111.923 12.205 111.773 11.8625 111.472 11.608C111.192 11.3536 110.811 11.2263 110.33 11.2263H108.046C106.744 11.2263 106.093 11.5199 106.093 12.1071V12.5769C106.093 12.7922 106.173 12.9781 106.333 13.1347C106.514 13.2717 106.764 13.3696 107.085 13.4283L112.554 14.3971C113.696 14.5929 114.618 15.0137 115.319 15.6596C116.02 16.2859 116.371 17.0003 116.371 17.8028V18.8597C116.371 20.132 115.83 21.14 114.748 21.8837C113.686 22.6275 112.264 22.9994 110.481 22.9994H107.776Z" fill="#75DAB4"/>
<path d="M125.68 22.9994C124.354 22.9994 123.175 22.7645 122.143 22.2948C121.133 21.8055 120.343 21.1204 119.775 20.2396C119.227 19.3589 118.954 18.3411 118.954 17.1863V13.7512C118.954 12.5964 119.238 11.5787 119.806 10.6979C120.375 9.79753 121.164 9.1027 122.175 8.61337C123.206 8.12405 124.385 7.87939 125.712 7.87939H128.554C129.88 7.87939 131.048 8.12405 132.059 8.61337C133.09 9.1027 133.89 9.79753 134.459 10.6979C135.027 11.5787 135.311 12.5964 135.311 13.7512V17.1863C135.311 18.3411 135.027 19.3589 134.459 20.2396C133.89 21.1204 133.09 21.8055 132.059 22.2948C131.048 22.7645 129.869 22.9994 128.522 22.9994H125.68ZM128.459 19.5644C129.238 19.5644 129.859 19.3197 130.322 18.8304C130.785 18.3215 131.017 17.6658 131.017 16.8633V14.0155C131.017 13.213 130.785 12.5671 130.322 12.0778C129.859 11.5689 129.248 11.3144 128.49 11.3144H125.775C125.017 11.3144 124.406 11.5689 123.943 12.0778C123.48 12.5671 123.248 13.213 123.248 14.0155V16.8633C123.248 17.6658 123.48 18.3215 123.943 18.8304C124.406 19.3197 125.006 19.5644 125.743 19.5644H128.459Z" fill="#17161A"/>
<path d="M140.411 11.5748H137.894V8.11457H140.411V7.13019C140.411 5.5194 140.909 4.26656 141.904 3.37167C142.918 2.4569 144.323 1.99951 146.118 1.99951H148.225V5.45974H146.177C145.552 5.45974 145.094 5.59894 144.801 5.87735C144.528 6.15576 144.391 6.59326 144.391 7.18985V8.11457H147.903V11.5748H144.391V22.9995H140.411V11.5748Z" fill="#17161A"/>
<path d="M158.965 22.9992C157.11 22.9992 155.751 22.6029 154.887 21.8103C154.022 21.0177 153.59 19.7891 153.59 18.1246V11.6153H150.808V8.16738H153.717V3.6792H157.89V8.16738H162V11.6153H157.89V17.9463C157.89 18.5011 157.995 18.9073 158.206 19.1649C158.438 19.4225 158.796 19.5513 159.281 19.5513H162V22.9992H158.965Z" fill="#17161A"/>
<path d="M7.74444 1.63024C7.22469 2.53385 6.61832 3.61464 6.39309 4.02215L5.97729 4.76629L6.37577 5.59903C6.72227 6.30775 6.80889 6.39633 6.99947 6.18372C7.12074 6.04198 7.96966 4.60683 8.88788 2.95908L10.5511 0.000200748H9.61553H8.67998L7.74444 1.63024Z" fill="#75DAB4"/>
<path d="M9.45948 3.65034L7.38049 7.31792L7.79629 8.07979C8.00419 8.50502 8.24674 8.85938 8.31604 8.85938C8.41999 8.85938 13.115 0.673742 13.3056 0.159925C13.3403 0.0713367 12.9591 0.000465393 12.4394 0.000465393H11.5211L9.45948 3.65034Z" fill="#75DAB4"/>
<path d="M13.7214 1.18744C11.8156 4.55382 9.21689 9.17817 9.02632 9.53253C8.83574 9.88689 8.87039 10.0463 9.28619 10.7551C9.63269 11.3575 9.78861 11.4992 9.89256 11.322C9.96186 11.1803 11.1573 9.07187 12.526 6.64453L15.0381 2.21507L16.2681 2.16192L17.4982 2.10877L16.9438 1.06341L16.3721 0.00034523H15.3846H14.397L13.7214 1.18744Z" fill="#75DAB4"/>
<path d="M3.25721 3.68544L2.80676 4.51818L5.57875 9.44373L8.35074 14.3516H9.28628C10.2218 14.3516 10.2218 14.3516 10.0313 13.9441C9.90998 13.7314 8.73189 11.6407 7.39787 9.30198L4.9897 5.04971L5.52678 4.05751C5.8213 3.50826 6.06385 3.01216 6.06385 2.94129C6.06385 2.88814 5.5441 2.83498 4.90308 2.83498H3.72498L3.25721 3.68544Z" fill="#75DAB4"/>
<path d="M15.6272 3.04777C15.4366 3.31353 14.8995 4.3766 14.8995 4.51834C14.8995 4.5715 16.4934 4.60693 18.4511 4.60693C20.4089 4.60693 22.0028 4.55378 22.0028 4.48291C22.0028 4.42976 21.8122 4.02225 21.5696 3.59702L21.1192 2.83515H18.4685C16.5454 2.83515 15.7658 2.88831 15.6272 3.04777Z" fill="#75DAB4"/>
<path d="M2.11376 5.70527C2.02713 5.82929 1.81923 6.20137 1.66331 6.50257L1.38611 7.08726L3.41312 10.7194L5.45746 14.3338L6.37569 14.3516C6.86078 14.3516 7.27658 14.3161 7.27658 14.2453C7.27658 14.1389 2.40828 5.49265 2.33898 5.49265C2.32165 5.49265 2.2177 5.59896 2.11376 5.70527Z" fill="#75DAB4"/>
<path d="M13.8081 6.23662L13.375 6.99849L18.3126 7.05164C21.0499 7.06936 23.3022 7.05164 23.3368 7.01621C23.3888 6.98077 23.2502 6.62642 23.0423 6.21891L22.6958 5.49248H18.4685H14.2412L13.8081 6.23662Z" fill="#75DAB4"/>
<path d="M0.45057 8.66415C0.208021 9.05394 0.00012207 9.46145 0.00012207 9.55004C0.00012207 9.63863 0.589169 10.7726 1.31682 12.0305L2.63351 14.3516H3.56906H4.52193L4.0888 13.5897C3.86358 13.1822 3.04931 11.747 2.28701 10.3828L0.901018 7.93772L0.45057 8.66415Z" fill="#75DAB4"/>
<path d="M12.4222 8.71707C12.1796 9.1423 12.0237 9.53209 12.0757 9.60296C12.1103 9.69155 14.5012 9.74471 17.3771 9.74471H22.6265L23.129 10.7192C23.4235 11.2507 23.718 11.6759 23.7873 11.6405C23.8739 11.6228 24.1685 11.1621 24.463 10.6129L25.0001 9.62068L24.515 8.80566L24.0472 7.97293H18.4512H12.8553L12.4222 8.71707Z" fill="#75DAB4"/>
<path d="M14.7263 10.7372C14.7263 10.8081 15.8178 12.7925 17.1691 15.1666C18.5205 17.5585 19.6466 19.6492 19.6986 19.8441C19.7505 20.039 19.56 20.606 19.2481 21.173L18.711 22.1475H19.9238H21.1365L21.5697 21.421C21.8295 21.0312 22.0028 20.5883 21.9681 20.4643C21.9335 20.3225 20.7034 18.0546 19.2308 15.4324L16.5454 10.6486L15.6445 10.6309C15.1421 10.6309 14.7263 10.684 14.7263 10.7372Z" fill="#75DAB4"/>
<path d="M18.0528 11.6585C21.2059 17.3282 22.4533 19.472 22.5919 19.4366C22.6612 19.4011 22.9211 19.0645 23.1463 18.6924L23.5448 17.9837L22.2801 15.769C21.5871 14.5465 20.6515 12.8987 20.2011 12.0837L19.3695 10.6308H18.4166H17.4811L18.0528 11.6585Z" fill="#75DAB4"/>
<path d="M20.4435 10.7195C20.4435 10.8612 23.9258 17.0093 24.0124 17.0093C24.0471 17.0093 24.2723 16.6549 24.5148 16.2297L24.9653 15.4501L23.6139 13.0405L22.2626 10.6486L21.3617 10.6309C20.8593 10.6309 20.4435 10.6663 20.4435 10.7195Z" fill="#75DAB4"/>
<path d="M0.537195 14.1921C0.242671 14.7237 0.00012207 15.2198 0.00012207 15.3261C0.00012207 15.4147 0.173371 15.8399 0.38127 16.2474L0.779743 17.0093H6.44499H12.1276L12.4741 16.3006C12.6646 15.9285 12.8206 15.5564 12.8206 15.5033C12.8206 15.4501 10.4817 15.4147 7.62309 15.4147H2.42561L1.94051 14.5997C1.07427 13.0936 1.14357 13.1114 0.537195 14.1921Z" fill="#75DAB4"/>
<path d="M12.4048 18.2492L9.84067 22.8558H8.64525C7.9869 22.8558 7.44983 22.9089 7.44983 22.9621C7.44983 23.033 7.69238 23.5114 7.9869 24.0252L8.50665 24.9819H9.52882H10.5337L13.3057 20.0564L16.0776 15.1485L15.6792 14.4398C15.4713 14.0678 15.2114 13.7311 15.1421 13.6957C15.0555 13.678 13.8254 15.7332 12.4048 18.2492Z" fill="#75DAB4"/>
<path d="M14.0506 20.4462C12.6993 22.8204 11.6078 24.8225 11.6078 24.8756C11.6078 24.9288 12.0236 24.9819 12.526 24.9819C13.3923 24.9819 13.4442 24.9465 13.7907 24.3087C13.9813 23.9543 14.8995 22.3243 15.8177 20.6765L17.4983 17.7176L17.1518 17.0266C16.9612 16.6368 16.736 16.2825 16.6493 16.2293C16.5627 16.1762 15.4019 18.072 14.0506 20.4462Z" fill="#75DAB4"/>
<path d="M1.38611 17.9661C1.38611 18.1433 2.16573 19.4012 2.33898 19.5252C2.4256 19.5961 4.31402 19.667 6.53161 19.667H10.551L11.0014 18.9051C11.244 18.4799 11.4346 18.0724 11.4346 18.0192C11.4346 17.9484 9.18232 17.8952 6.41034 17.8952C3.65567 17.8952 1.38611 17.9306 1.38611 17.9661Z" fill="#75DAB4"/>
<path d="M16.4414 21.297C15.6618 22.6967 14.8648 24.0964 14.6916 24.4153L14.3451 25L15.3326 24.9468L16.3028 24.8937L17.6022 22.5904L18.9015 20.2871L18.555 19.5252C18.3645 19.1177 18.1219 18.781 18.0353 18.781C17.9487 18.781 17.2384 19.915 16.4414 21.297Z" fill="#75DAB4"/>
<path d="M2.94531 20.5706C2.94531 20.6769 3.11856 21.0844 3.32646 21.4565L3.70761 22.1475H6.42762H9.16496L9.59808 21.4033C9.84063 20.9958 9.99656 20.606 9.94458 20.5174C9.80598 20.2871 2.94531 20.3402 2.94531 20.5706Z" fill="#75DAB4"/>
</svg>
