<svg width="163" height="25" viewBox="0 0 163 25" fill="none" xmlns="http://www.w3.org/2000/svg">
<path d="M39.8602 23.0005C38.2971 23.0005 36.9166 22.6779 35.7189 22.0326C34.5415 21.3874 33.6279 20.4781 32.9783 19.305C32.3287 18.1122 32.0039 16.7435 32.0039 15.1988V9.80216C32.0039 8.25747 32.3287 6.89853 32.9783 5.72535C33.6482 4.53261 34.5821 3.61362 35.7798 2.96837C36.9978 2.32311 38.3986 2.00049 39.982 2.00049H43.2098C44.7323 2.00049 46.0722 2.31334 47.2293 2.93903C48.3864 3.56473 49.2797 4.44462 49.909 5.5787C50.5586 6.69322 50.8834 7.9935 50.8834 9.47954H46.7421C46.7421 8.30635 46.4173 7.36781 45.7677 6.6639C45.1181 5.94043 44.2654 5.5787 43.2098 5.5787H39.982C38.8452 5.5787 37.9317 5.98931 37.2414 6.81054C36.5512 7.61222 36.2061 8.66809 36.2061 9.97814V15.0228C36.2061 16.3329 36.5411 17.3985 37.211 18.2198C37.8809 19.0214 38.764 19.4223 39.8602 19.4223H43.1489C44.2248 19.4223 45.0978 19.0214 45.7677 18.2198C46.4579 17.4181 46.803 16.3622 46.803 15.0522H50.9443C50.9443 16.636 50.6195 18.034 49.9699 19.2463C49.3203 20.439 48.4067 21.3678 47.2293 22.0326C46.0519 22.6779 44.6917 23.0005 43.1489 23.0005H39.8602Z" fill="white"/>
<path d="M53.5271 7.94073H57.5572V9.87223C57.9623 9.28876 58.5381 8.81594 59.2844 8.45378C60.052 8.07151 60.8516 7.88037 61.6833 7.88037H63.8582V11.4416H61.6833C60.5531 11.4416 59.6362 11.7635 58.9325 12.4073C58.2289 13.0512 57.877 13.8761 57.877 14.882V23.0004H53.5271V7.94073Z" fill="white"/>
<path d="M72.9949 23.0004C71.7086 23.0004 70.5652 22.7753 69.5648 22.3251C68.5847 21.8554 67.8191 21.2095 67.2678 20.3874C66.7166 19.5458 66.4409 18.5867 66.4409 17.5102V13.7229C66.4409 12.5681 66.7166 11.5503 67.2678 10.6695C67.8191 9.78872 68.5847 9.10367 69.5648 8.61435C70.5652 8.12503 71.7086 7.88037 72.9949 7.88037H75.4449C77.405 7.88037 78.9771 8.40884 80.1613 9.46577C81.3455 10.5227 81.9376 11.9319 81.9376 13.6935V16.8056H70.606V17.5102C70.606 18.1561 70.8204 18.6748 71.2492 19.0662C71.6779 19.4577 72.2598 19.6534 72.9949 19.6534H75.3837C76.0983 19.6534 76.67 19.5066 77.0987 19.213C77.5479 18.8999 77.7725 18.4986 77.7725 18.0093H81.8764C81.8764 18.9879 81.6007 19.8589 81.0495 20.6223C80.4982 21.3856 79.7223 21.9728 78.7219 22.3838C77.7419 22.7949 76.6087 23.0004 75.3224 23.0004H72.9949ZM77.8337 13.9284V13.6935C77.8337 12.9302 77.6194 12.3234 77.1906 11.8732C76.7618 11.4035 76.1902 11.1686 75.4755 11.1686H72.9949C72.2598 11.1686 71.6677 11.4133 71.2186 11.9026C70.7694 12.3919 70.5448 13.0378 70.5448 13.8403V13.9284H77.8337Z" fill="white"/>
<path d="M89.7177 23.0004C88.1645 23.0004 86.91 22.6187 85.9542 21.8554C84.9984 21.092 84.5205 20.084 84.5205 18.8314V17.7451C84.5205 16.512 85.0183 15.5236 86.014 14.7798C87.0096 14.0164 88.3238 13.6348 89.9566 13.6348H91.7787C92.2964 13.6348 92.8539 13.7033 93.4513 13.8403C94.0487 13.9773 94.5963 14.1632 95.0941 14.3981V12.8714C95.0941 12.3821 94.9248 11.9907 94.5863 11.6971C94.2677 11.3839 93.8396 11.2273 93.302 11.2273H90.7332C90.1757 11.2273 89.7277 11.3545 89.3891 11.609C89.0506 11.8634 88.8814 12.206 88.8814 12.6366H84.9387C84.9387 11.2077 85.4664 10.0627 86.5217 9.20154C87.597 8.32076 89.0008 7.88037 90.7332 7.88037H93.302C95.0543 7.88037 96.4681 8.34033 97.5433 9.26026C98.6186 10.1606 99.1563 11.3643 99.1563 12.8714V22.7655H95.3928V21.0039C94.9149 21.6107 94.3275 22.1 93.6305 22.4719C92.9336 22.8242 92.2466 23.0004 91.5696 23.0004H89.7177ZM91.8683 19.947C92.605 19.947 93.2621 19.7611 93.8396 19.3892C94.4171 19.0173 94.8352 18.5182 95.0941 17.8919V17.3928C94.7755 17.1579 94.3275 16.9719 93.75 16.8349C93.1924 16.6979 92.5951 16.6294 91.9579 16.6294H90.0761C89.5982 16.6294 89.2099 16.7469 88.9112 16.9817C88.6125 17.2166 88.4632 17.5298 88.4632 17.9212V18.6846C88.4632 19.0564 88.6225 19.3598 88.9411 19.5947C89.2796 19.8296 89.7177 19.947 90.2553 19.947H91.8683Z" fill="white"/>
<path d="M107.78 23.0004C105.956 23.0004 104.494 22.5306 103.392 21.5911C102.29 20.6516 101.739 19.4185 101.739 17.8919H105.766C105.766 18.4203 105.946 18.8509 106.307 19.1837C106.688 19.4968 107.179 19.6534 107.78 19.6534H110.484C111.687 19.6534 112.288 19.3305 112.288 18.6846V18.1855C112.288 17.9897 112.187 17.8136 111.987 17.657C111.787 17.4808 111.516 17.3634 111.176 17.3047L105.976 16.4239C104.754 16.2282 103.783 15.8074 103.061 15.1615C102.36 14.496 102.009 13.7229 102.009 12.8421V11.8732C102.009 10.6206 102.53 9.64192 103.572 8.9373C104.634 8.23268 106.107 7.88037 107.99 7.88037H110.334C112.017 7.88037 113.369 8.32076 114.391 9.20154C115.433 10.0627 115.954 11.2077 115.954 12.6366H111.927C111.927 12.206 111.777 11.8634 111.476 11.609C111.196 11.3545 110.815 11.2273 110.334 11.2273H108.05C106.748 11.2273 106.097 11.5209 106.097 12.1081V12.5778C106.097 12.7931 106.177 12.9791 106.337 13.1357C106.517 13.2727 106.768 13.3705 107.088 13.4293L112.558 14.3981C113.7 14.5938 114.622 15.0147 115.323 15.6606C116.024 16.2869 116.375 17.0013 116.375 17.8038V18.8607C116.375 20.133 115.834 21.141 114.752 21.8847C113.69 22.6285 112.268 23.0004 110.484 23.0004H107.78Z" fill="#75DAB4"/>
<path d="M125.684 23.0004C124.357 23.0004 123.178 22.7655 122.147 22.2957C121.136 21.8064 120.347 21.1214 119.779 20.2406C119.231 19.3598 118.958 18.342 118.958 17.1872V13.7522C118.958 12.5974 119.242 11.5796 119.81 10.6989C120.379 9.79851 121.168 9.10367 122.179 8.61435C123.21 8.12503 124.389 7.88037 125.715 7.88037H128.557C129.884 7.88037 131.052 8.12503 132.063 8.61435C133.094 9.10367 133.894 9.79851 134.463 10.6989C135.031 11.5796 135.315 12.5974 135.315 13.7522V17.1872C135.315 18.342 135.031 19.3598 134.463 20.2406C133.894 21.1214 133.094 21.8064 132.063 22.2957C131.052 22.7655 129.873 23.0004 128.526 23.0004H125.684ZM128.463 19.5653C129.242 19.5653 129.863 19.3207 130.326 18.8314C130.789 18.3225 131.02 17.6668 131.02 16.8643V14.0164C131.02 13.214 130.789 12.5681 130.326 12.0787C129.863 11.5698 129.252 11.3154 128.494 11.3154H125.778C125.021 11.3154 124.41 11.5698 123.947 12.0787C123.484 12.5681 123.252 13.214 123.252 14.0164V16.8643C123.252 17.6668 123.484 18.3225 123.947 18.8314C124.41 19.3207 125.01 19.5653 125.747 19.5653H128.463Z" fill="white"/>
<path d="M140.415 11.5758H137.898V8.11555H140.415V7.13117C140.415 5.52038 140.912 4.26753 141.907 3.37265C142.922 2.45787 144.327 2.00049 146.122 2.00049H148.229V5.46072H146.18C145.556 5.46072 145.098 5.59992 144.805 5.87833C144.532 6.15674 144.395 6.59424 144.395 7.19083V8.11555H147.907V11.5758H144.395V23.0005H140.415V11.5758Z" fill="white"/>
<path d="M158.969 23.0002C157.114 23.0002 155.754 22.6039 154.89 21.8113C154.026 21.0186 153.594 19.7901 153.594 18.1256V11.6162H150.812V8.16836H153.72V3.68018H157.894V8.16836H162.004V11.6162H157.894V17.9473C157.894 18.5021 157.999 18.9083 158.21 19.1659C158.442 19.4235 158.8 19.5523 159.285 19.5523H162.004V23.0002H158.969Z" fill="white"/>
<path d="M7.74834 1.63122C7.2286 2.53483 6.62222 3.61561 6.397 4.02312L5.9812 4.76727L6.37967 5.60001C6.72617 6.30872 6.8128 6.39731 7.00337 6.1847C7.12465 6.04295 7.97357 4.60781 8.89179 2.96005L10.555 0.00117731H9.61944H8.68389L7.74834 1.63122Z" fill="#75DAB4"/>
<path d="M9.46339 3.65131L7.3844 7.3189L7.8002 8.08077C8.0081 8.506 8.25065 8.86035 8.31995 8.86035C8.42389 8.86035 13.1189 0.674719 13.3095 0.160902C13.3442 0.0723133 12.963 0.00144196 12.4433 0.00144196H11.5251L9.46339 3.65131Z" fill="#75DAB4"/>
<path d="M13.7253 1.18842C11.8195 4.5548 9.2208 9.17915 9.03022 9.53351C8.83965 9.88786 8.8743 10.0473 9.2901 10.756C9.6366 11.3584 9.79252 11.5002 9.89647 11.323C9.96577 11.1813 11.1612 9.07284 12.5299 6.6455L15.042 2.21605L16.272 2.1629L17.5021 2.10974L16.9477 1.06439L16.376 0.00132179H15.3885H14.401L13.7253 1.18842Z" fill="#75DAB4"/>
<path d="M3.26112 3.68641L2.81067 4.51915L5.58266 9.4447L8.35464 14.3525H9.29019C10.2257 14.3525 10.2257 14.3525 10.0352 13.945C9.91389 13.7324 8.73579 11.6417 7.40177 9.30296L4.99361 5.05069L5.53068 4.05849C5.82521 3.50924 6.06775 3.01314 6.06775 2.94227C6.06775 2.88911 5.54801 2.83596 4.90698 2.83596H3.72889L3.26112 3.68641Z" fill="#75DAB4"/>
<path d="M15.6311 3.04874C15.4405 3.31451 14.9034 4.37758 14.9034 4.51932C14.9034 4.57247 16.4973 4.60791 18.4551 4.60791C20.4128 4.60791 22.0067 4.55476 22.0067 4.48389C22.0067 4.43073 21.8161 4.02322 21.5735 3.59799L21.1231 2.83613H18.4724C16.5493 2.83613 15.7697 2.88928 15.6311 3.04874Z" fill="#75DAB4"/>
<path d="M2.11766 5.70624C2.03104 5.83027 1.82314 6.20234 1.66721 6.50355L1.39001 7.08823L3.41703 10.7204L5.46137 14.3348L6.37959 14.3525C6.86469 14.3525 7.28049 14.3171 7.28049 14.2462C7.28049 14.1399 2.41218 5.49363 2.34289 5.49363C2.32556 5.49363 2.22161 5.59994 2.11766 5.70624Z" fill="#75DAB4"/>
<path d="M13.812 6.2376L13.3789 6.99947L18.3165 7.05262C21.0538 7.07034 23.3061 7.05262 23.3407 7.01718C23.3927 6.98175 23.2541 6.62739 23.0462 6.21988L22.6997 5.49345H18.4724H14.2452L13.812 6.2376Z" fill="#75DAB4"/>
<path d="M0.454476 8.66512C0.211927 9.05491 0.00402832 9.46242 0.00402832 9.55101C0.00402832 9.6396 0.593076 10.7735 1.32072 12.0315L2.63742 14.3525H3.57296H4.52583L4.09271 13.5907C3.86749 13.1832 3.05321 11.748 2.29092 10.3837L0.904924 7.93869L0.454476 8.66512Z" fill="#75DAB4"/>
<path d="M12.4261 8.71805C12.1835 9.14328 12.0276 9.53307 12.0796 9.60394C12.1142 9.69253 14.5051 9.74568 17.381 9.74568H22.6305L23.1329 10.7202C23.4274 11.2517 23.7219 11.6769 23.7912 11.6415C23.8778 11.6238 24.1724 11.1631 24.4669 10.6139L25.004 9.62166L24.5189 8.80664L24.0511 7.9739H18.4551H12.8592L12.4261 8.71805Z" fill="#75DAB4"/>
<path d="M14.7302 10.7382C14.7302 10.809 15.8217 12.7934 17.173 15.1676C18.5244 17.5595 19.6505 19.6502 19.7025 19.8451C19.7545 20.04 19.5639 20.607 19.252 21.174L18.715 22.1484H19.9277H21.1404L21.5736 21.422C21.8334 21.0322 22.0067 20.5893 21.972 20.4652C21.9374 20.3235 20.7073 18.0556 19.2347 15.4334L16.5493 10.6496L15.6484 10.6319C15.146 10.6319 14.7302 10.685 14.7302 10.7382Z" fill="#75DAB4"/>
<path d="M18.0566 11.6594C21.2097 17.3291 22.4571 19.473 22.5957 19.4376C22.665 19.4021 22.9249 19.0655 23.1501 18.6934L23.5486 17.9847L22.2839 15.77C21.5909 14.5474 20.6553 12.8997 20.2049 12.0847L19.3733 10.6318H18.4204H17.4849L18.0566 11.6594Z" fill="#75DAB4"/>
<path d="M20.4474 10.7204C20.4474 10.8622 23.9297 17.0103 24.0163 17.0103C24.051 17.0103 24.2762 16.6559 24.5187 16.2307L24.9692 15.4511L23.6178 13.0415L22.2665 10.6496L21.3656 10.6318C20.8632 10.6318 20.4474 10.6673 20.4474 10.7204Z" fill="#75DAB4"/>
<path d="M0.541101 14.1931C0.246577 14.7247 0.00402832 15.2208 0.00402832 15.3271C0.00402832 15.4157 0.177278 15.8409 0.385177 16.2484L0.78365 17.0103H6.4489H12.1315L12.478 16.3015C12.6685 15.9295 12.8245 15.5574 12.8245 15.5042C12.8245 15.4511 10.4856 15.4157 7.62699 15.4157H2.42952L1.94442 14.6006C1.07817 13.0946 1.14747 13.1123 0.541101 14.1931Z" fill="#75DAB4"/>
<path d="M12.4087 18.2501L9.84457 22.8568H8.64916C7.99081 22.8568 7.45374 22.9099 7.45374 22.9631C7.45374 23.0339 7.69628 23.5123 7.99081 24.0261L8.51056 24.9829H9.53273H10.5376L13.3096 20.0574L16.0815 15.1495L15.6831 14.4408C15.4752 14.0687 15.2153 13.7321 15.146 13.6967C15.0594 13.6789 13.8293 15.7342 12.4087 18.2501Z" fill="#75DAB4"/>
<path d="M14.0545 20.4471C12.7032 22.8213 11.6117 24.8234 11.6117 24.8766C11.6117 24.9298 12.0275 24.9829 12.5299 24.9829C13.3962 24.9829 13.4481 24.9475 13.7946 24.3096C13.9852 23.9553 14.9034 22.3252 15.8217 20.6775L17.5022 17.7186L17.1557 17.0276C16.9651 16.6378 16.7399 16.2835 16.6532 16.2303C16.5666 16.1772 15.4059 18.073 14.0545 20.4471Z" fill="#75DAB4"/>
<path d="M1.39001 17.9671C1.39001 18.1442 2.16964 19.4022 2.34289 19.5262C2.42951 19.5971 4.31793 19.668 6.53552 19.668H10.5549L11.0053 18.9061C11.2479 18.4809 11.4385 18.0734 11.4385 18.0202C11.4385 17.9493 9.18623 17.8962 6.41424 17.8962C3.65958 17.8962 1.39001 17.9316 1.39001 17.9671Z" fill="#75DAB4"/>
<path d="M16.4453 21.298C15.6657 22.6977 14.8687 24.0974 14.6955 24.4163L14.349 25.001L15.3365 24.9478L16.3067 24.8947L17.6061 22.5914L18.9055 20.288L18.559 19.5262C18.3684 19.1187 18.1258 18.782 18.0392 18.782C17.9526 18.782 17.2423 19.916 16.4453 21.298Z" fill="#75DAB4"/>
<path d="M2.94922 20.5716C2.94922 20.6779 3.12247 21.0854 3.33037 21.4574L3.71152 22.1484H6.43153H9.16887L9.60199 21.4043C9.84454 20.9968 10.0005 20.607 9.94849 20.5184C9.80989 20.2881 2.94922 20.3412 2.94922 20.5716Z" fill="#75DAB4"/>
</svg>
